<svg fill="#1A1A1A" xmlns="http://www.w3.org/2000/svg" xmlns:xlink="http://www.w3.org/1999/xlink" version="1.1" x="0px" y="0px" viewBox="0 0 100 100" enable-background="new 0 0 100 100" xml:space="preserve"><g><g><polygon points="17.438,24.686 17.438,76.645 49.232,95 49.232,43.043   "></polygon><polygon points="50,5 18.207,23.356 50,41.711 81.793,23.356   "></polygon><g><polygon points="26.796,73.854 20.583,70.266 20.583,60.359 26.796,63.947    "></polygon><polygon points="26.796,60.307 20.583,56.719 20.583,46.81 26.796,50.397    "></polygon><polygon points="26.796,46.761 20.583,43.173 20.583,33.271 26.796,36.858    "></polygon><polygon points="36.534,79.475 30.309,75.881 30.309,65.975 36.534,69.568    "></polygon><polygon points="36.534,65.928 30.309,62.334 30.309,52.425 36.534,56.02    "></polygon><polygon points="36.534,52.383 30.309,48.788 30.309,38.886 36.534,42.48    "></polygon><polygon points="46.288,85.107 40.059,81.51 40.059,71.604 46.288,75.2    "></polygon><polygon points="46.288,71.559 40.059,67.963 40.059,58.055 46.288,61.65    "></polygon><polygon points="46.288,58.014 40.059,54.417 40.059,44.515 46.288,48.112    "></polygon><path d="M50.768,43.043V95l12.698-7.33V69.568l6.226-3.594V84.08l12.87-7.438V24.686L50.768,43.043z M73.204,63.953l6.213-3.594     v9.906l-6.213,3.588V63.953z M73.204,50.397l6.213-3.587v9.909l-6.213,3.588V50.397z M73.204,36.859l6.213-3.587v9.902     l-6.213,3.587V36.859z M63.466,56.02l6.226-3.594v9.908l-6.226,3.594V56.02z M63.466,42.481l6.226-3.594v9.902l-6.226,3.594     V42.481z M53.712,75.201l6.229-3.598v9.9l-6.229,3.604V75.201z M53.712,61.65l6.229-3.596v9.907l-6.229,3.597V61.65z      M53.712,48.112l6.229-3.597v9.902l-6.229,3.597V48.112z"></path></g><polygon points="65.003,81.367 68.154,83.188 68.154,68.398 65.003,70.219   "></polygon></g></g></svg>