<svg xmlns="http://www.w3.org/2000/svg" xmlns:xlink="http://www.w3.org/1999/xlink" width="100" height="100" viewBox="0 0 100 100"><g><g transform="translate(50 50) scale(0.69 0.69) rotate(45) translate(-50 -50)" style="fill:#E60000"><svg fill="#E60000" xmlns="http://www.w3.org/2000/svg" xmlns:xlink="http://www.w3.org/1999/xlink" xml:space="preserve" version="1.1" style="shape-rendering:geometricPrecision;text-rendering:geometricPrecision;image-rendering:optimizeQuality;" viewBox="0 0 847 847" x="0px" y="0px" fill-rule="evenodd" clip-rule="evenodd"><defs><style type="text/css">
   
    .fil0 {fill:#E60000}
   
  </style></defs><g><path class="fil0" d="M31 476l0 -106c0,-27 22,-49 50,-49l240 0 0 -240c0,-28 22,-50 49,-50l106 0c28,0 50,22 50,50l0 240 240 0c27,0 50,22 50,49l0 106c0,28 -23,50 -50,50l-240 0 0 240c0,27 -22,50 -50,50l-106 0c-27,0 -49,-23 -49,-50l0 -240 -240 0c-28,0 -50,-22 -50,-50z"></path></g></svg></g></g></svg>