<svg fill="#1A1A1A" xmlns:dc="http://purl.org/dc/elements/1.1/" xmlns:cc="http://creativecommons.org/ns#" xmlns:rdf="http://www.w3.org/1999/02/22-rdf-syntax-ns#" xmlns:svg="http://www.w3.org/2000/svg" xmlns="http://www.w3.org/2000/svg" xmlns:sodipodi="http://sodipodi.sourceforge.net/DTD/sodipodi-0.dtd" xmlns:inkscape="http://www.inkscape.org/namespaces/inkscape" version="1.1" x="0px" y="0px" viewBox="0 0 100 100"><g transform="translate(0,-952.36218)"><path style="text-indent:0;text-transform:none;direction:ltr;block-progression:tb;baseline-shift:baseline;color:#000000;enable-background:accumulate;" d="m 23.45315,958.36218 c -2.2094,0 -4.0938,1.8191 -4.0938,4.0625 l 0,69.03122 c 0,2.2435 1.8845,4.0313 4.0938,4.0313 l 8.0312,0 0,6.8125 c 0,2.2213 1.8412,4.0625 4.0626,4.0625 l 41.0312,0 c 2.2213,0 4.0625,-1.8411 4.0625,-4.0625 l 0,-69.03122 c 0,-2.2215 -1.8412,-4.0626 -4.0625,-4.0626 l -8.0312,0 0,-6.7812 c 0,-2.2434 -1.8844,-4.0625 -4.0938,-4.0625 z m 0,3.8437 41,0 c 0.1572,0 0.2188,0.096 0.2188,0.2188 l 0,6.7812 -29.125,0 c -2.2478,0.043 -3.7766,2.1765 -4.0626,4.0626 0,0.01 0,0.021 0,0.031 l 0,58.34382 -8.0312,0 c -0.1573,0 -0.2188,-0.064 -0.2188,-0.1876 l 0,-69.03122 c 0,-0.1232 0.062,-0.2188 0.2188,-0.2188 z m 12.0938,10.875 41.0312,0 c 0.1453,0 0.1875,0.042 0.1875,0.1876 l 0,69.03122 c 0,0.1454 -0.042,0.1875 -0.1875,0.1875 l -41.0312,0 c -0.1455,0 -0.1876,-0.042 -0.1876,-0.1875 l 0,-6.8125 0,-62.21872 c 0.01,-0.1199 0.091,-0.1787 0.1876,-0.1876 z" fill="#1A1A1A" fill-opacity="1" fill-rule="nonzero" stroke="none" marker="none" visibility="visible" display="inline" overflow="visible"></path></g></svg>