<?xml version="1.0" encoding="utf-8"?>
<!-- Generator: Adobe Illustrator 23.0.3, SVG Export Plug-In . SVG Version: 6.00 Build 0)  -->
<svg version="1.1" id="speed-collapse" xmlns="http://www.w3.org/2000/svg" xmlns:xlink="http://www.w3.org/1999/xlink" x="0px" y="0px"
	 viewBox="0 0 16 16" style="enable-background:new 0 0 16 16;" xml:space="preserve">
<style type="text/css">
	.st0{fill:#1A1A1A;}
</style>
<g>
	<path class="st0" d="M15.4,16H0.6C0.3,16,0,15.7,0,15.4V0.6C0,0.3,0.3,0,0.6,0h14.8C15.7,0,16,0.3,16,0.6v14.8
		C16,15.7,15.7,16,15.4,16z M1.2,14.8h13.5V1.2H1.2V14.8z"/>
	<path class="st0" d="M11.7,8.6H4.3C4,8.6,3.7,8.3,3.7,8S4,7.4,4.3,7.4h7.4c0.3,0,0.6,0.3,0.6,0.6S12,8.6,11.7,8.6z"/>
</g>
</svg>
