<svg fill="#1A1A1A" xmlns="http://www.w3.org/2000/svg" xmlns:xlink="http://www.w3.org/1999/xlink" version="1.1" x="0px" y="0px" viewBox="0 0 100 100" enable-background="new 0 0 100 100" xml:space="preserve">
    <circle cx="50" cy="50" r="40" stroke="white" stroke-width="3" fill="white" />

  <path d="M50.01,96.321c-25.547,0-46.332-20.784-46.332-46.332c0-25.536,20.784-46.311,46.332-46.311  c25.536,0,46.311,20.775,46.311,46.311C96.321,75.537,75.546,96.321,50.01,96.321z M50.01,6.321  c-24.09,0-43.689,19.589-43.689,43.668c0,24.091,19.599,43.689,43.689,43.689c24.079,0,43.668-19.599,43.668-43.689  C93.679,25.911,74.089,6.321,50.01,6.321z"></path>
  <rect x="5" y="49.593" width="90" height="0.793"></rect>
  <rect x="49.614" y="49.989" width="0.793" height="45.011"></rect>
  <rect x="46.046" y="5.062" width="7.929" height="44.927"></rect>
  </svg>